<svg fill="#000000" xmlns="http://www.w3.org/2000/svg"  viewBox="0 0 80 80" width="80px" height="80px"><path d="M 51.015625 5.5 L 46.441406 7.394531 L 46.5 12.496094 C 45.769531 13.097656 45.097656 13.769531 44.496094 14.5 L 39.394531 14.441406 L 37.5 19.015625 L 41.109375 22.539063 C 41.054688 23.015625 41 23.492188 41 24 C 41 24.507813 41.054688 24.984375 41.109375 25.460938 L 37.5 28.984375 L 39.394531 33.558594 L 44.496094 33.5 C 45.097656 34.230469 45.769531 34.902344 46.5 35.503906 L 46.441406 40.605469 L 51.015625 42.5 L 54.539063 38.890625 C 55.015625 38.945313 55.492188 39 56 39 C 56.507813 39 56.984375 38.945313 57.460938 38.890625 L 60.984375 42.5 L 65.558594 40.605469 L 65.5 35.503906 C 66.230469 34.902344 66.902344 34.230469 67.503906 33.5 L 72.605469 33.558594 L 74.5 28.984375 L 70.890625 25.460938 C 70.945313 24.984375 71 24.507813 71 24 C 71 23.492188 70.945313 23.015625 70.890625 22.539063 L 74.5 19.015625 L 72.605469 14.441406 L 67.503906 14.5 C 66.902344 13.769531 66.230469 13.097656 65.5 12.496094 L 65.558594 7.394531 L 60.984375 5.5 L 57.460938 9.109375 C 56.984375 9.054688 56.507813 9 56 9 C 55.492188 9 55.015625 9.054688 54.539063 9.109375 Z M 50.53125 7.867188 L 53.78125 11.195313 L 54.28125 11.128906 C 54.859375 11.050781 55.429688 11 56 11 C 56.570313 11 57.140625 11.050781 57.71875 11.128906 L 58.21875 11.195313 L 61.46875 7.867188 L 63.542969 8.726563 L 63.484375 13.378906 L 63.886719 13.683594 C 64.800781 14.382813 65.617188 15.199219 66.316406 16.113281 L 66.621094 16.515625 L 71.277344 16.457031 L 72.136719 18.53125 L 68.804688 21.78125 L 68.871094 22.28125 C 68.949219 22.859375 69 23.429688 69 24 C 69 24.570313 68.949219 25.140625 68.871094 25.71875 L 68.804688 26.21875 L 72.136719 29.46875 L 71.277344 31.542969 L 66.621094 31.484375 L 66.316406 31.886719 C 65.617188 32.800781 64.800781 33.617188 63.886719 34.316406 L 63.484375 34.621094 L 63.542969 39.277344 L 61.46875 40.136719 L 58.21875 36.804688 L 57.71875 36.871094 C 57.140625 36.949219 56.570313 37 56 37 C 55.429688 37 54.859375 36.949219 54.28125 36.871094 L 53.78125 36.804688 L 50.53125 40.136719 L 48.457031 39.277344 L 48.515625 34.621094 L 48.113281 34.316406 C 47.199219 33.617188 46.382813 32.800781 45.683594 31.886719 L 45.378906 31.484375 L 40.722656 31.542969 L 39.863281 29.46875 L 43.195313 26.21875 L 43.128906 25.71875 C 43.050781 25.140625 43 24.570313 43 24 C 43 23.429688 43.050781 22.859375 43.128906 22.28125 L 43.195313 21.78125 L 39.863281 18.53125 L 40.722656 16.457031 L 45.378906 16.515625 L 45.683594 16.113281 C 46.382813 15.199219 47.199219 14.382813 48.113281 13.683594 L 48.515625 13.378906 L 48.457031 8.726563 Z M 56 15 C 55.449219 15 55 15.449219 55 16 C 55 16.550781 55.449219 17 56 17 C 56.550781 17 57 16.550781 57 16 C 57 15.449219 56.550781 15 56 15 Z M 51.972656 16.074219 C 51.808594 16.074219 51.644531 16.121094 51.5 16.203125 C 51.269531 16.335938 51.101563 16.554688 51.03125 16.8125 C 50.964844 17.070313 51 17.34375 51.132813 17.574219 C 51.410156 18.050781 52.019531 18.214844 52.5 17.9375 C 52.976563 17.660156 53.140625 17.050781 52.863281 16.574219 C 52.683594 16.253906 52.339844 16.0625 51.972656 16.074219 Z M 59.953125 16.074219 C 59.613281 16.089844 59.304688 16.277344 59.132813 16.574219 C 58.855469 17.050781 59.023438 17.664063 59.5 17.9375 C 59.976563 18.214844 60.589844 18.050781 60.863281 17.574219 C 61 17.34375 61.035156 17.070313 60.964844 16.816406 C 60.898438 16.558594 60.730469 16.339844 60.5 16.207031 C 60.335938 16.109375 60.144531 16.066406 59.953125 16.074219 Z M 62.902344 19 C 62.734375 19.003906 62.570313 19.050781 62.425781 19.132813 C 62.195313 19.265625 62.027344 19.484375 61.960938 19.742188 C 61.890625 19.996094 61.925781 20.269531 62.0625 20.5 C 62.335938 20.976563 62.949219 21.140625 63.425781 20.863281 C 63.902344 20.589844 64.070313 19.976563 63.792969 19.5 C 63.609375 19.183594 63.269531 18.992188 62.902344 19 Z M 49.027344 19 C 48.683594 19.019531 48.375 19.207031 48.203125 19.5 C 47.929688 19.980469 48.09375 20.589844 48.574219 20.867188 C 49.050781 21.144531 49.660156 20.980469 49.9375 20.5 C 50.070313 20.273438 50.105469 20 50.039063 19.742188 C 49.96875 19.484375 49.800781 19.265625 49.574219 19.136719 C 49.40625 19.039063 49.214844 18.992188 49.027344 19 Z M 56 20 C 53.800781 20 52 21.800781 52 24 C 52 26.199219 53.800781 28 56 28 C 58.199219 28 60 26.199219 60 24 C 60 21.800781 58.199219 20 56 20 Z M 56 22 C 57.117188 22 58 22.882813 58 24 C 58 25.117188 57.117188 26 56 26 C 54.882813 26 54 25.117188 54 24 C 54 22.882813 54.882813 22 56 22 Z M 48 23 C 47.449219 23 47 23.449219 47 24 C 47 24.550781 47.449219 25 48 25 C 48.550781 25 49 24.550781 49 24 C 49 23.449219 48.550781 23 48 23 Z M 64 23 C 63.449219 23 63 23.449219 63 24 C 63 24.550781 63.449219 25 64 25 C 64.550781 25 65 24.550781 65 24 C 65 23.449219 64.550781 23 64 23 Z M 49.046875 27 C 48.878906 27.003906 48.714844 27.050781 48.570313 27.132813 C 48.339844 27.265625 48.171875 27.484375 48.105469 27.742188 C 48.035156 27.996094 48.070313 28.269531 48.203125 28.5 C 48.480469 28.976563 49.09375 29.140625 49.570313 28.863281 C 50.046875 28.589844 50.214844 27.976563 49.9375 27.5 C 49.753906 27.183594 49.414063 26.992188 49.046875 27 Z M 62.878906 27.003906 C 62.542969 27.019531 62.234375 27.207031 62.0625 27.5 C 61.929688 27.730469 61.894531 28.003906 61.960938 28.261719 C 62.03125 28.519531 62.199219 28.738281 62.425781 28.871094 C 62.65625 29.003906 62.929688 29.039063 63.1875 28.96875 C 63.445313 28.898438 63.664063 28.730469 63.796875 28.5 C 64.070313 28.023438 63.90625 27.414063 63.425781 27.136719 C 63.261719 27.039063 63.070313 26.996094 62.878906 27.003906 Z M 59.972656 29.925781 C 59.808594 29.929688 59.644531 29.976563 59.5 30.0625 C 59.269531 30.191406 59.101563 30.410156 59.03125 30.667969 C 58.964844 30.925781 59 31.199219 59.132813 31.425781 C 59.410156 31.90625 60.019531 32.070313 60.5 31.792969 C 60.976563 31.515625 61.140625 30.90625 60.863281 30.425781 C 60.683594 30.109375 60.339844 29.917969 59.972656 29.925781 Z M 51.953125 29.929688 C 51.609375 29.945313 51.300781 30.132813 51.132813 30.429688 C 50.855469 30.90625 51.019531 31.519531 51.5 31.796875 C 51.726563 31.929688 52 31.964844 52.257813 31.894531 C 52.515625 31.828125 52.734375 31.660156 52.863281 31.429688 C 53 31.199219 53.035156 30.925781 52.964844 30.671875 C 52.894531 30.414063 52.726563 30.195313 52.5 30.0625 C 52.332031 29.964844 52.140625 29.921875 51.953125 29.929688 Z M 56 31 C 55.449219 31 55 31.449219 55 32 C 55 32.550781 55.449219 33 56 33 C 56.550781 33 57 32.550781 57 32 C 57 31.449219 56.550781 31 56 31 Z M 23.324219 33 L 21.433594 37.722656 C 20.125 38.089844 18.882813 38.609375 17.71875 39.261719 L 13.042969 37.257813 L 9.257813 41.042969 L 11.261719 45.71875 C 10.609375 46.882813 10.089844 48.125 9.722656 49.433594 L 5 51.324219 L 5 56.675781 L 9.722656 58.566406 C 10.089844 59.875 10.609375 61.117188 11.261719 62.28125 L 9.257813 66.957031 L 13.042969 70.742188 L 17.71875 68.738281 C 18.882813 69.390625 20.125 69.910156 21.433594 70.277344 L 23.324219 75 L 28.675781 75 L 30.566406 70.277344 C 31.875 69.910156 33.117188 69.390625 34.28125 68.738281 L 38.957031 70.742188 L 42.742188 66.957031 L 40.738281 62.28125 C 41.390625 61.117188 41.910156 59.875 42.277344 58.566406 L 47 56.675781 L 47 51.324219 L 42.277344 49.433594 C 41.910156 48.125 41.390625 46.882813 40.738281 45.71875 L 42.742188 41.042969 L 38.957031 37.257813 L 34.28125 39.261719 C 33.117188 38.609375 31.875 38.089844 30.566406 37.722656 L 28.675781 33 Z M 24.675781 35 L 27.324219 35 L 29.050781 39.320313 L 29.550781 39.441406 C 31.066406 39.808594 32.484375 40.40625 33.78125 41.195313 L 34.21875 41.464844 L 38.5 39.628906 L 40.371094 41.5 L 38.535156 45.78125 L 38.804688 46.21875 C 39.59375 47.515625 40.191406 48.933594 40.558594 50.449219 L 40.679688 50.949219 L 45 52.675781 L 45 55.324219 L 40.679688 57.050781 L 40.558594 57.550781 C 40.191406 59.066406 39.59375 60.484375 38.804688 61.78125 L 38.535156 62.21875 L 40.371094 66.5 L 38.5 68.371094 L 34.21875 66.535156 L 33.78125 66.804688 C 32.484375 67.59375 31.066406 68.191406 29.550781 68.558594 L 29.050781 68.679688 L 27.324219 73 L 24.675781 73 L 22.949219 68.679688 L 22.449219 68.558594 C 20.933594 68.191406 19.515625 67.59375 18.21875 66.804688 L 17.78125 66.535156 L 13.5 68.371094 L 11.628906 66.5 L 13.464844 62.21875 L 13.195313 61.78125 C 12.40625 60.484375 11.808594 59.066406 11.441406 57.550781 L 11.320313 57.050781 L 7 55.324219 L 7 52.675781 L 11.320313 50.949219 L 11.441406 50.449219 C 11.808594 48.933594 12.40625 47.515625 13.195313 46.21875 L 13.464844 45.78125 L 11.628906 41.5 L 13.5 39.628906 L 17.78125 41.464844 L 18.21875 41.195313 C 19.515625 40.40625 20.933594 39.808594 22.449219 39.441406 L 22.949219 39.320313 Z M 26 43 C 25.449219 43 25 43.449219 25 44 C 25 44.550781 25.449219 45 26 45 C 26.550781 45 27 44.550781 27 44 C 27 43.449219 26.550781 43 26 43 Z M 20.976563 44.339844 C 20.808594 44.34375 20.644531 44.390625 20.5 44.472656 C 20.269531 44.605469 20.101563 44.824219 20.03125 45.082031 C 19.964844 45.335938 20 45.609375 20.132813 45.839844 C 20.265625 46.070313 20.484375 46.238281 20.742188 46.304688 C 20.996094 46.375 21.269531 46.339844 21.5 46.203125 C 21.976563 45.929688 22.140625 45.316406 21.863281 44.839844 C 21.683594 44.523438 21.34375 44.332031 20.976563 44.339844 Z M 30.953125 44.34375 C 30.613281 44.359375 30.304688 44.546875 30.132813 44.839844 C 30 45.070313 29.964844 45.34375 30.03125 45.597656 C 30.101563 45.855469 30.269531 46.074219 30.5 46.207031 C 30.976563 46.484375 31.589844 46.316406 31.863281 45.839844 C 32.140625 45.363281 31.976563 44.75 31.5 44.472656 C 31.332031 44.378906 31.144531 44.332031 30.953125 44.34375 Z M 26 48 C 22.699219 48 20 50.699219 20 54 C 20 57.300781 22.699219 60 26 60 C 29.300781 60 32 57.300781 32 54 C 32 50.699219 29.300781 48 26 48 Z M 34.636719 48 C 34.46875 48.003906 34.304688 48.050781 34.160156 48.132813 C 33.929688 48.265625 33.761719 48.484375 33.691406 48.742188 C 33.625 48.996094 33.660156 49.269531 33.792969 49.5 C 33.925781 49.730469 34.144531 49.898438 34.402344 49.964844 C 34.65625 50.035156 34.929688 50 35.160156 49.863281 C 35.636719 49.589844 35.800781 48.976563 35.527344 48.5 C 35.34375 48.183594 35 47.992188 34.636719 48 Z M 17.292969 48 C 16.953125 48.019531 16.644531 48.207031 16.472656 48.5 C 16.339844 48.730469 16.304688 49.003906 16.371094 49.257813 C 16.441406 49.515625 16.609375 49.734375 16.839844 49.867188 C 17.316406 50.144531 17.929688 49.976563 18.203125 49.5 C 18.480469 49.023438 18.316406 48.410156 17.839844 48.136719 C 17.671875 48.039063 17.484375 47.992188 17.292969 48 Z M 26 50 C 28.222656 50 30 51.777344 30 54 C 30 56.222656 28.222656 58 26 58 C 23.777344 58 22 56.222656 22 54 C 22 51.777344 23.777344 50 26 50 Z M 16 53 C 15.449219 53 15 53.449219 15 54 C 15 54.550781 15.449219 55 16 55 C 16.550781 55 17 54.550781 17 54 C 17 53.449219 16.550781 53 16 53 Z M 36 53 C 35.449219 53 35 53.449219 35 54 C 35 54.550781 35.449219 55 36 55 C 36.550781 55 37 54.550781 37 54 C 37 53.449219 36.550781 53 36 53 Z M 17.316406 58 C 17.148438 58.003906 16.984375 58.046875 16.839844 58.132813 C 16.363281 58.410156 16.195313 59.019531 16.472656 59.5 C 16.605469 59.726563 16.824219 59.894531 17.082031 59.964844 C 17.335938 60.035156 17.609375 60 17.839844 59.863281 C 18.070313 59.734375 18.238281 59.515625 18.304688 59.257813 C 18.375 59 18.339844 58.726563 18.203125 58.5 C 18.023438 58.179688 17.683594 57.988281 17.316406 58 Z M 34.609375 58 C 34.269531 58.019531 33.960938 58.207031 33.792969 58.5 C 33.515625 58.980469 33.679688 59.589844 34.15625 59.867188 C 34.636719 60.144531 35.246094 59.980469 35.523438 59.5 C 35.65625 59.273438 35.691406 59 35.625 58.742188 C 35.554688 58.484375 35.386719 58.265625 35.15625 58.136719 C 34.992188 58.039063 34.800781 57.992188 34.609375 58 Z M 30.976563 61.65625 C 30.808594 61.664063 30.644531 61.707031 30.5 61.792969 C 30.023438 62.070313 29.855469 62.679688 30.132813 63.15625 C 30.265625 63.386719 30.484375 63.554688 30.742188 63.625 C 30.996094 63.695313 31.269531 63.660156 31.5 63.527344 C 31.730469 63.394531 31.898438 63.175781 31.964844 62.917969 C 32.035156 62.660156 32 62.386719 31.863281 62.15625 C 31.683594 61.839844 31.34375 61.648438 30.976563 61.65625 Z M 20.953125 61.660156 C 20.613281 61.679688 20.304688 61.867188 20.132813 62.160156 C 20 62.390625 19.964844 62.664063 20.03125 62.917969 C 20.101563 63.175781 20.269531 63.394531 20.5 63.527344 C 20.726563 63.660156 21 63.695313 21.257813 63.628906 C 21.515625 63.558594 21.734375 63.390625 21.863281 63.160156 C 22.140625 62.683594 21.976563 62.070313 21.5 61.796875 C 21.332031 61.699219 21.140625 61.652344 20.953125 61.660156 Z M 26 63 C 25.449219 63 25 63.449219 25 64 C 25 64.550781 25.449219 65 26 65 C 26.550781 65 27 64.550781 27 64 C 27 63.449219 26.550781 63 26 63 Z"/></svg>